<svg id="圖層_1" data-name="圖層 1" xmlns="http://www.w3.org/2000/svg" xmlns:xlink="http://www.w3.org/1999/xlink" viewBox="0 0 12.88 11.1"><defs><style>.cls-1{fill:none;}.cls-2{clip-path:url(#clip-path);}.cls-3{fill:#adadad;}</style><clipPath id="clip-path" transform="translate(-291.35 -415.72)"><rect class="cls-1" x="291.35" y="415.72" width="12.93" height="11.34"/></clipPath></defs><title>weibo_s</title><g class="cls-2"><path class="cls-3" d="M301.08,421.41c-0.5-.21-0.5-0.21-0.37-0.73a1,1,0,0,0-1.05-1.39,7,7,0,0,0-2.16.5c0-.4.11-0.72,0.11-1a0.87,0.87,0,0,0-1-1,3,3,0,0,0-1.08.25,7.78,7.78,0,0,0-4,4,3.27,3.27,0,0,0-.24,1.37,2.83,2.83,0,0,0,1.53,2.33,7.11,7.11,0,0,0,5.83.77,5.48,5.48,0,0,0,3.12-2,1.85,1.85,0,0,0-.75-3.07h0Zm-1.26,2.84a3.37,3.37,0,0,1-1.48,1.16,5.3,5.3,0,0,1-4.07.16,3.55,3.55,0,0,1-.87-0.49,1.82,1.82,0,0,1-.26-2.83,4.46,4.46,0,0,1,2.78-1.34c0.26,0,.52,0,0.74-0.06a4.07,4.07,0,0,1,3,1.06,1.74,1.74,0,0,1,.18,2.33h0Zm4.4-4.8a0.47,0.47,0,1,1-.91,0,3,3,0,0,0-2.86-2.86,0.47,0.47,0,0,1-.56-0.48,0.48,0.48,0,0,1,.6-0.43,3.87,3.87,0,0,1,3.73,3.73h0Zm-1.83,0a0.46,0.46,0,1,1-.87.25,1.68,1.68,0,0,0-1.28-1.26,0.43,0.43,0,0,1-.37-0.5,0.45,0.45,0,0,1,.53-0.39,4.07,4.07,0,0,1,.46.14,2.53,2.53,0,0,1,1.54,1.76h0ZM297,424.24a1.79,1.79,0,0,1-2,.41,1.16,1.16,0,0,1-.3-2,1.94,1.94,0,0,1,1.23-.48,5.56,5.56,0,0,1,.6.14,1.16,1.16,0,0,1,.47,1.92h0Zm0,0" transform="translate(-291.35 -415.72)"/></g></svg>