<svg id="圖層_1" data-name="圖層 1" xmlns="http://www.w3.org/2000/svg" viewBox="0 0 11.62 10.79"><defs><style>.cls-1{fill:#adadad;}</style></defs><title>weixin_s</title><path class="cls-1" d="M303,422.81a3.68,3.68,0,1,0-3.63,3.08,4.12,4.12,0,0,0,1.74-.38l1.43,0.62-0.17-1.6a2.75,2.75,0,0,0,.62-1.73h0Zm-4.85-.84a0.52,0.52,0,1,1,.51-0.52,0.52,0.52,0,0,1-.51.52h0Zm2.45,0a0.52,0.52,0,1,1,.51-0.52,0.52,0.52,0,0,1-.51.52h0Zm0,0" transform="translate(-291.4 -415.34)"/><path class="cls-1" d="M299.4,419.32a4.54,4.54,0,0,1,1.58.28c0-.06,0-0.13,0-0.19,0-2.25-2.15-4.07-4.79-4.07s-4.79,1.82-4.79,4.07a3.64,3.64,0,0,0,.82,2.28L292,423.8l1.89-.82a5.35,5.35,0,0,0,1.53.44,3,3,0,0,1-.07-0.61,3.8,3.8,0,0,1,4-3.49h0Zm-1.59-2.38a0.68,0.68,0,1,1-.68.68,0.68,0.68,0,0,1,.68-0.68h0Zm-3.23,1.36a0.68,0.68,0,1,1,.68-0.68,0.68,0.68,0,0,1-.68.68h0Zm0,0" transform="translate(-291.4 -415.34)"/></svg>