<svg id="Layer_1" data-name="Layer 1" xmlns="http://www.w3.org/2000/svg" viewBox="0 0 123.38 44.68"><defs><style>.cls-1{fill:#fed73f;}.cls-2,.cls-3{fill:#eb613b;}.cls-3{fill-rule:evenodd;}</style></defs><title>logo</title><path class="cls-1" d="M117.33,185.29a0.45,0.45,0,0,1-.32.4,0.12,0.12,0,0,1-.13,0,0.88,0.88,0,0,1-.47-0.06c-0.11-.06-0.36-0.23-0.15-0.37a0.6,0.6,0,0,1,1.07.06" transform="translate(-67.54 -183.67)"/><path class="cls-1" d="M114.61,186.47c-0.07.23-.11,0.41-0.4,0.41s-0.59-.08-0.58-0.39a0.72,0.72,0,0,1,.28-0.36,0.62,0.62,0,0,1,.7.34" transform="translate(-67.54 -183.67)"/><path class="cls-1" d="M120.36,186a1.59,1.59,0,0,1,.06.3,1,1,0,0,1-.82-0.21c0-.12-0.21-0.14-0.14-0.29a0.44,0.44,0,0,1,.37-0.24,1.7,1.7,0,0,1,.54.44" transform="translate(-67.54 -183.67)"/><path class="cls-1" d="M109.63,187.67a0.43,0.43,0,0,1,.06.25,0.81,0.81,0,0,1-.86-0.08,0.37,0.37,0,0,1,0-.34c0.21-.37.66-0.12,0.82,0.16" transform="translate(-67.54 -183.67)"/><path class="cls-1" d="M112.19,187.56a0.34,0.34,0,0,1-.15.35,1.11,1.11,0,0,1-.78-0.12,0.35,0.35,0,0,1,0-.38,0.44,0.44,0,0,1,.5-0.16,0.72,0.72,0,0,1,.45.31" transform="translate(-67.54 -183.67)"/><path class="cls-1" d="M106.75,186.1c0-.57-0.33-1.24.27-1.58,0.31-.06.7-0.5,1-0.07l0.14,0.34a2,2,0,0,1-1.37,1.3m-1.51,3.56c-0.16-.28-0.32,0-0.47,0a0.89,0.89,0,0,1,.26-1.07c0.19-.22,1-0.84.93-0.06a1.16,1.16,0,0,1-.72,1.13m3.66-4.6a2.1,2.1,0,0,0-1.2-1.3,0.75,0.75,0,0,0-.56,0,3,3,0,0,0-.79.32c-0.55.22-.41,0.88-0.46,1.39a0.48,0.48,0,0,1,0,.51,1,1,0,0,0-.74.37,1.54,1.54,0,0,0,0,1.11,2.33,2.33,0,0,0-1.3,1.16,2.46,2.46,0,0,0,.19,1.16,1.77,1.77,0,0,0,1.16.69,1.5,1.5,0,0,0,1.38-1,3.5,3.5,0,0,0,0-1.19,0.47,0.47,0,0,1,.36,0,0.9,0.9,0,0,0,.51-0.37,1.12,1.12,0,0,0-.22-1.32,2.11,2.11,0,0,0,1.65-1.46m-4,1.07a0.76,0.76,0,0,0,.51-0.23,0.82,0.82,0,0,0-.09-0.6,0.49,0.49,0,0,1-.32-0.23c-0.38-.23-0.44.27-0.74,0.37,0,0.42.45,0.42,0.65,0.7m-0.46,1c0.14-.2.28,0,0.42-0.18a0.88,0.88,0,0,0-.6-0.7,0.75,0.75,0,0,0-.37.28c0,0.38.39,0.35,0.56,0.6" transform="translate(-67.54 -183.67)"/><path class="cls-1" d="M122.64,189V189a0.8,0.8,0,0,1-.91-0.29,0.57,0.57,0,0,1-.06-0.34c0-.23.27-0.07,0.37-0.19a2,2,0,0,1,.6.73" transform="translate(-67.54 -183.67)"/><path class="cls-1" d="M141.88,226.74a0.34,0.34,0,0,0,.09-0.18,0.16,0.16,0,0,0-.09.18m-2.37-3.58a0.33,0.33,0,0,0-.25.17c0.09,0.22-.14.19-0.25,0.25-0.68.22-1.52,0.05-2.12,0.46a1.67,1.67,0,0,1-1-.12c-0.39.13-.58-0.43-0.91-0.17a1.7,1.7,0,0,1-.46-0.7,2.79,2.79,0,0,1-.87-1.21,2.74,2.74,0,0,0,1-.17,2.83,2.83,0,0,1,.46.25,9.84,9.84,0,0,1,1.12.38c0.67,0,1.3.42,2,.08a2.32,2.32,0,0,0,1.16.13l0.29-.29,0,0c-0.14.28-.07,0.63-0.21,0.91m-6.35-2.07c-0.49-.19-1,0.18-1.42-0.26a3.12,3.12,0,0,1-1.73-.14,0.43,0.43,0,0,1,0-.49,11.15,11.15,0,0,1,1.78-1.78,7.87,7.87,0,0,1,1.07-1.11c0.38,0.16.6-.45,1-0.18a0.51,0.51,0,0,0,.36.09v0a3,3,0,0,0,.71.31c0,0.41.39,0.71,0.18,1.16,0.1,0.58.34,1.42-.22,1.87a2.1,2.1,0,0,1-1.16.49,1.91,1.91,0,0,0-.62.09m-2.93-4.45c0.52,0.11.2,0.72,0.45,1l0,0.13c-0.13-.34-0.27-0.77-0.4-1.16m13.26,7.56a0.81,0.81,0,0,0-.63,0,6.49,6.49,0,0,0-1.15-.22c-0.4-.29-1-0.15-1.38-0.45,0.05-.49.19-0.95,0.27-1.42a1.28,1.28,0,0,0-.4-1.07c-0.47-.12-0.72.56-1.11,0.76s-0.62-.34-1.07-0.18c-0.53.36-1-.12-1.6,0a7.79,7.79,0,0,1-1.07-.45,1.83,1.83,0,0,0,.62-1.65c-0.33-.64.12-1.44-0.35-2a13.15,13.15,0,0,1,0-2.31l0,0c0.22-.2,0-0.34-0.09-0.53a0.31,0.31,0,0,1-.22-0.09,7.67,7.67,0,0,0-1.2,1.38,1,1,0,0,1-1.11.58,0.57,0.57,0,0,1-.31.14c-0.42-.08-0.6.45-0.89,0.58-0.61-.77-1.53-1.15-2.09-2-0.09.18-.31,0-0.4,0.18,0,0.91.63,1.58,0.67,2.49,0,0.35.43,0.31,0.44,0.67a15.33,15.33,0,0,1-1.47,1.47,0.52,0.52,0,0,0-.13.49,0.43,0.43,0,0,0-.09.31,0.88,0.88,0,0,0,.76.67,0.52,0.52,0,0,1,.53-0.27,7.28,7.28,0,0,0,1.69.36,1.28,1.28,0,0,1,.89,0c0.29-.2.07,0.23,0.31,0.27a6.59,6.59,0,0,0,.67,1.11,3.76,3.76,0,0,1-.44.27,19.4,19.4,0,0,0-2.18,1,1.92,1.92,0,0,0-.44-0.53,0.63,0.63,0,0,0-.67.27,1.53,1.53,0,0,0,0,1.33,1.08,1.08,0,0,0,.76.36,2,2,0,0,1,1.11-.85,22.32,22.32,0,0,1,2.4-1.2,1.65,1.65,0,0,1,.49.67,13.59,13.59,0,0,0-1,1.2c-0.6.13-.86,0.83-1.38,1.16a0.67,0.67,0,0,0-.44-0.31,1.14,1.14,0,0,0-.71.76,1.19,1.19,0,0,1-.09.49,0.7,0.7,0,0,0,.49.58c0.23,0.23.5,0,.71-0.13,0.19-.77,1-1,1.43-1.69,0.65,0,.79-0.81,1.29-1.11,0.39-1.55,1.64,0,2.58-.53a2.37,2.37,0,0,1,1-.31,8.23,8.23,0,0,1,1.56,1.52c-0.08.47,0.51,0.55,0.67,0.93a6.11,6.11,0,0,1-.22.71c0,0.31.37,0.21,0.53,0.36a0.75,0.75,0,0,0,.89-0.31,1.49,1.49,0,0,0,0-.76,0.49,0.49,0,0,0-.4-0.31c-0.59.38-.49-0.49-0.93-0.53-0.19-.67-1-1.13-1.33-1.69l1.11-.27c0.68,0.25,1.4.39,2.09,0.62,0,0.2-.08.33,0,0.53a1.91,1.91,0,0,0,1,.27,1.06,1.06,0,0,0,.49-0.8,0.91,0.91,0,0,0-.36-0.53m-11.75-5.43a0.42,0.42,0,0,0,0,.4l0.53,0.13a0.24,0.24,0,0,0,.09-0.27c-0.08-.2-0.4-0.62-0.62-0.27m2.85,0.31c-0.17-.12-0.18-0.49-0.49-0.36a0.6,0.6,0,0,0-.13.31,0.87,0.87,0,0,0,.58.27,0.27,0.27,0,0,0,0-.22" transform="translate(-67.54 -183.67)"/><path class="cls-2" d="M115.84,198.22c-1.69-.16-3.37-0.56-4.39,1-0.49.75-.73,0.64-0.42,1.52-0.27.5-.72,0.17-0.53,1,0.73,0.09-.21,1.77.8,1.77,0.47,0,.09.67,0.73,0.91,0.33,0.13.42,0.92,0.87,1.24A8.39,8.39,0,0,1,114,207c0,0.38.37-.06,0.53,0.13a2.09,2.09,0,0,0,.32,1c0.4,0.57.69,0.51,0.67,1.46a9.8,9.8,0,0,1-.13,1.3c-0.09.56-.35,0.19-0.65,0.54-0.44.53-1.36,0.26-2,0-0.84-.4,0-0.69-1.23-0.69s-0.41,1.49.33,1.61c0.9,0.14,1.84.81,2.94,0.42,0.41-.76.85-0.46,1.07-1.27,0.59-.58.33,1,0.67-0.63,0.28-1.32-.08-0.41.4-0.64a18.93,18.93,0,0,0-.53-2c0-.54.11-0.49-0.4-0.82a4.53,4.53,0,0,1-.53-0.76,0.77,0.77,0,0,1-.53-0.58c-0.26-.63-0.83-0.59-1.24-1.17s-0.24-1.11-1-1.44-0.64-.74-0.76-1.47c-0.07-.47-0.07-2,0.33-2.35,0.87-.7,1.2-0.6,2.38-0.6a5.7,5.7,0,0,1,1.3.89c0.24,0.68.91,0.35,1.2,0.13-0.26-.91-0.89-1.07-1.33-1.78" transform="translate(-67.54 -183.67)"/><path class="cls-2" d="M125.94,205.18h-0.25a2.31,2.31,0,0,0,.25.75,1.25,1.25,0,0,0-.25.69c0,0.75.2,1-.5,1.31a4.78,4.78,0,0,1-.25.75,5.11,5.11,0,0,1,0,1.25c-0.07.16-1.16,0.83-1.41,1.07-0.65.65-1.51,0.38-2.38,0.09s-0.31-1.11-.95-1.41c-0.25-.82.33-1.51,0.25-2-0.65-.09-0.09-1.44,0-1.75,0-.12.25,0.15,0.25-0.09v-1c0-.8.16-0.55,0.5-1.19-0.37-.19-0.57-0.14-0.5-0.5a1.8,1.8,0,0,0-1.25.75c0,0.26.28,0,.24,0.32,0,0.51-.1,1-0.16,1.53a2.18,2.18,0,0,1-.58,1.39c0,0.52,0,2.21.5,2.25,0.05,0.23-.46.63-0.1,0.61a1.5,1.5,0,0,1,.1.89c0,0.49-.16.68,0.3,0.82,0.69,0.2,1.33.53,2,.69a1.19,1.19,0,0,0,1.23-.14c0.31-.63.44-0.07,0.93-0.37a2.94,2.94,0,0,1,1.5-.75c0,1.29,0,1.75,1.25,1.75-0.07-1.3-1.14-2.47-.75-3.75,0.84,0.16-.09-2.16.75-2-0.47-.93.2-0.33,0.41-1.16a6.93,6.93,0,0,0,.09-1.58c-0.59,0-1.38,0-1.25.75" transform="translate(-67.54 -183.67)"/><path class="cls-2" d="M136.71,206.42c-0.55,0-.08-0.62-0.25-1-0.54-.45-1.32-1.5-1.87-1.5a5.44,5.44,0,0,1-.79.18,4.86,4.86,0,0,0-1-.27c-0.58,0-.53.84-1,0.84a1.31,1.31,0,0,0-.87.5,2.05,2.05,0,0,1-.25-1c0.58-.12,0-0.16,0-0.25-0.17-.52,0-0.82-0.68-0.69a0.62,0.62,0,0,0-.56.28c0,0.72,0,1.47.5,1.66-0.06.74-.13,1.47-0.2,2.2s-0.3.27-.3,0.92c0,0.43-.24.29-0.25,0.38a6.78,6.78,0,0,0,0,1c0,0.79-.61,1.83,0,2.48,1.18-.3,1-1,1-2a7.47,7.47,0,0,1,.39-2.84,7.25,7.25,0,0,1,.43-0.87c0.33-.49.57,0,0.78-0.63,0.29-.88,1.87-1,2.64-0.63s0.76,1.23,1.24,1.77c0.75,0.85-.41,2.08-0.35,3a1.09,1.09,0,0,1-.41,1c0.08,0.77.14,1.11,1,.92s0.64-1.19.72-1.95l0.31-3c-0.31,0-.34-0.2-0.25-0.5" transform="translate(-67.54 -183.67)"/><path class="cls-2" d="M146.7,206.93c0.09-.58-0.25-0.48-0.25-1.15a1.26,1.26,0,0,0-.75-1,6.08,6.08,0,0,1-.75-0.87,1.54,1.54,0,0,0-.86.16,1.88,1.88,0,0,1-1-.23c-0.64-.16-0.83.38-1.13,0.82h-0.37a1.57,1.57,0,0,0-.62.5,2,2,0,0,1-.25-1c0.57-.12,0-0.16,0-0.25-0.17-.52-0.05-0.82-0.69-0.69a0.62,0.62,0,0,0-.56.28c0,0.72,0,1.47.5,1.66-0.07.74-.13,1.47-0.2,2.2s-0.3.27-.3,0.92c0,0.44-.24.29-0.25,0.38a6.84,6.84,0,0,0,0,1c0,0.79-.61,1.83,0,2.48,1.19-.3,1-1,1-2a7.51,7.51,0,0,1,.39-2.84,6.57,6.57,0,0,1,.43-0.87c0.33-.49.57,0,0.78-0.63,0.29-.88,1.87-1,2.65-0.63s0.77,1.23,1.23,1.77c0.75,0.85-.42,2.07-0.35,3a1.07,1.07,0,0,1-.41,1c0.08,0.77.14,1.11,1,.92s0.63-1.19.72-1.95q0.15-1.48.31-3H146.7" transform="translate(-67.54 -183.67)"/><path class="cls-2" d="M155.32,203.37h-0.75a3.49,3.49,0,0,1-.75,1.5h-0.25v0.75h-0.25c-0.11.88-1.07,1.26-1.25,2.25h-0.25v-0.25l-0.5-.25v-1h-1l-0.25-1.75c-0.79-.26-0.75-0.78-1.5-1a0.45,0.45,0,0,1-.25.25,2.4,2.4,0,0,0,.75,2,10.84,10.84,0,0,0,1,1.5h0.5l0.25,1,0.75,0.25a0.94,0.94,0,0,1-.3.83c-0.33.54-.76,1.07-1.19,1.67h-0.25v0.75l-0.5.25v0.25l-0.75.25v0.75h-0.25c-0.64.89-.47,1.21-1.5,1.75a3.12,3.12,0,0,0,.25,1.25c0.85,0,1.42,0,1.34-.91s0.45-1.05,1.16-1.58c0.53-.74-0.5-0.35.62-1.25s0.91-2.66,2.37-3v-1h0.25c0.24-1,2-2.21,1.75-3.25a1.82,1.82,0,0,0,1.25-1.5,1,1,0,0,1-.5-0.5" transform="translate(-67.54 -183.67)"/><path class="cls-2" d="M177.63,211.81a0.63,0.63,0,0,1-.93.35c-0.8-.39-0.52-0.84-0.43-1.64l0.21-1.92c0-.43.1-0.86,0.14-1.28h0.25c0.35-1.24.19-3.68,1-4.5a4.07,4.07,0,0,0-.06-2.15,1.25,1.25,0,0,0-.55-0.94c-0.63-.69-2,0.25-2.64.59,0.19,0.68.06,0.57,0.75,0.75,0.14-.42.59-1.29,1.25-0.75a10.54,10.54,0,0,1,.18,1.71,4.47,4.47,0,0,1-.18,1.29h-0.25c-0.23.91,0.09,1.75-.25,2.75,0,0-.49.48-0.5,0.5q-0.37,2.5-.75,5c0.65,0.55,1.44,1.91,2.31,1.2s2-.61,1.44-2c-1.4.17-.49,0.12-1,1" transform="translate(-67.54 -183.67)"/><path class="cls-2" d="M183.44,211.81a0.64,0.64,0,0,1-.93.35c-0.79-.39-0.51-0.84-0.43-1.64l0.21-1.92,0.14-1.28h0.25c0.35-1.24.18-3.7,1-4.5a4,4,0,0,0-.06-2.15,1.25,1.25,0,0,0-.55-0.94c-0.63-.69-2,0.25-2.64.59,0.19,0.68.06,0.57,0.75,0.75,0.14-.42.59-1.29,1.25-0.75a10.49,10.49,0,0,1,.18,1.71,4.38,4.38,0,0,1-.18,1.29h-0.25c-0.23.91,0.09,1.75-.25,2.75,0,0-.49.48-0.5,0.5q-0.38,2.5-.75,5c0.65,0.55,1.44,1.91,2.31,1.2s1.95-.61,1.44-2c-1.4.17-.49,0.12-1,1" transform="translate(-67.54 -183.67)"/><path class="cls-2" d="M189.62,202.34h-1.11c-0.62,0-.14.16-0.39,0.25a0.73,0.73,0,0,0-.5.25c-1.06.35-.92,1.07-1.13,2.12q-0.47.76,0.38,0.87c0.08,0.42.16,0.83,0.25,1.25l1,0.75a7,7,0,0,1,0,.75,7,7,0,0,1,.48.68,2.44,2.44,0,0,1,0,2.07c-1,0-1.25-.63-2.25-0.25,0.31,1.16.83,1.23,1.88,1,0.81-.18,1.07,0,1.25-0.87,0.26-1.3-.08-0.41.37-0.63a7.21,7.21,0,0,0-.77-3.17,2.83,2.83,0,0,0-1-1.2c-0.73-.55-0.39-1-0.25-1.87h-0.25a1.5,1.5,0,0,1,.75-1.25c0.77,0.16,1.18,0,1.29.77,0.08,0.53,0,.78.64,0.67,1.57-.31-0.31-1.62-0.69-2.19" transform="translate(-67.54 -183.67)"/><path class="cls-2" d="M171.82,201.68c0-.84,0-0.91-0.5-1.25-0.5.88-.78,0.41-0.5,1.5a2.68,2.68,0,0,0,1-.25" transform="translate(-67.54 -183.67)"/><path class="cls-2" d="M172.07,209.81c-0.77-.2,0-1.89,0-2.25-0.24-.44-0.63,0-0.5-0.75,0.74-.42.5-1.75,0-2.25-1.45.15-1,1-.9,2.25,0,0.46.4,3.07-.1,3,0.08,0.5.17,1,.25,1.5h-0.25a3.17,3.17,0,0,0,.25,1.25,3.1,3.1,0,0,0,1.25-.5c-0.13-.75.14-1.64,0-2.25" transform="translate(-67.54 -183.67)"/><path class="cls-3" d="M159.2,205.42c0.52,0.9,1.6-.36,2.46.22,0.61-.21.17-0.59,0.8-0.59,0.33,0,.33.2,0.67,0.22,1.07,0.08,1.67-.74,2.9-0.51a1,1,0,0,0-.14-1.25c0.75-1-.56-2.81.27-3.84a4.71,4.71,0,0,1,1.3.59c0.18,1.29-.56,2.89-0.07,4.28-0.06.33-.28,0.48-0.34,0.81,0.31,1.55-.22,3.37.55,4.58,0.2,1.42-.43,2-1.44,2.07-0.48-.82.06-1.79,0.14-2.73s-0.39-2,0-3c-0.35-.51-1.3-0.05-1.71-0.59-0.36,0,.06.37-0.24,0.45-0.78-.57-1.18.13-2.11,0.22-0.49,0,0-.1-0.39.22-1-.27-1.86-0.22-2.25.22-0.57.64-.09,1.36,0.07,2.44,0.06,0.4-.09.9,0,1.33a7.09,7.09,0,0,1,.55,1.33c0,0.85-1.29,2.22-1.64.81a3.71,3.71,0,0,1,.14-1,5.38,5.38,0,0,0-.34-2.06,1.42,1.42,0,0,1,.21-0.67c-0.39-.45-0.12-1.24-0.21-2.07,0-.44-0.38-0.83-0.48-1.48,0-.26,0-0.59,0-0.89-0.2-1.54-1.21-3.9-.68-4.72s1.52,0,1.71.74c0.22,1.31-.57,3.2.34,4.06C159.31,204.95,159.15,205.07,159.2,205.42Z" transform="translate(-67.54 -183.67)"/><path class="cls-1" d="M83.24,193.73c0.54,1.34-.82,2.23-1.54,3.22a0.78,0.78,0,0,1-.54-0.13,1.52,1.52,0,0,1-.33-0.67,4.78,4.78,0,0,1,1.68-3,1.24,1.24,0,0,1,.74.54" transform="translate(-67.54 -183.67)"/><path class="cls-1" d="M87.94,194.07a1.22,1.22,0,0,1-.4,1.28,0.68,0.68,0,0,1-.74-0.13,1.35,1.35,0,0,1-.54-0.94,2,2,0,0,1,.87-0.74,0.63,0.63,0,0,1,.8.54" transform="translate(-67.54 -183.67)"/><path class="cls-1" d="M104.39,219.59c0,1.24-1.09,2.13-2,3a5.12,5.12,0,0,1-1.88.47,0.37,0.37,0,0,1-.4-0.13,4.32,4.32,0,0,1-3.56-2.75,10.16,10.16,0,0,0,1.48-.67c1-.42,2.24-0.42,3.09-1.28,0.06-1.14-1.17-1.16-1.68-1.95a2.51,2.51,0,0,1-.67-1.07,2.4,2.4,0,0,1,2.62-.87c-0.07.27-.47,0.57-0.2,0.8s0.59,0.14.87,0.2c0.37-.1.64,0.44,1,0.54,1.16,0.67,1.09,2.06,1.34,3.22a1,1,0,0,0,0,.54m-7.66-2.28c0.66,0.08,1.24.35,1.88,0.47-0.57.54-1.56,0.37-2.22,0.87a1.41,1.41,0,0,1,.34-1.34m-0.87-1.41c-0.47-.05-0.72-0.5-1.21-0.2l-0.07.07a2.17,2.17,0,0,0-.81,0c-0.38-.79-2-1.31-1.14-2.35a2.18,2.18,0,0,1,1.07-.94,7.22,7.22,0,0,0,1.41,0,6.51,6.51,0,0,0,1.81,2.22c-0.33.47-1,.64-1.07,1.21m-3.56,3.43a1.71,1.71,0,0,0-.34-1.14l-0.33-.34a3.68,3.68,0,0,1,1.34-.61,3.11,3.11,0,0,0,.54-0.13c-0.62.77,0,1.68,0.14,2.48-0.5,0-1.12.34-1.34-.27M90.36,217c-0.27,0-.25-0.26-0.34-0.4a4.5,4.5,0,0,1,1.14-2.22c0.27,0.55,1,1,1.34,1.61-0.69.4-1.61,0.25-2.15,1m-2.55-1.34c-0.61-1.23-2-1.95-3-3a2.59,2.59,0,0,1,.6-1.15c0.86,0.25,1.08,1.48,2.08,1.48a19.16,19.16,0,0,1,2.49-.07,0.18,0.18,0,0,1,.2-0.07l0.07,0.07c-1.05.59-2.35,1.42-2.48,2.75m-3.9-7.46a2.23,2.23,0,0,1,.94-0.74c0.47-.57,1.4-1.09,1.34-1.95,0.73-1.16,1.26-2.38,1.95-3.56-0.15-.4.05-0.94-0.4-1.21a1.36,1.36,0,0,0-.6-0.14,2.27,2.27,0,0,0-.34,1.14c-1,1-1.31,2.28-2.28,3.29-0.57.58-1,.94-1.61,1.54l-0.34-.07c-0.54-.77-1.49-1.26-1.88-2.22-0.84-.49-0.79-1.46-1.48-2.08a3.62,3.62,0,0,0-.47-1.21c0.17,0,.39.08,0.47-0.13a1.39,1.39,0,0,0-.47-1.35c-0.08,0-.22,0-0.27-0.07-0.07-.32.4-0.22,0.6-0.33,0.84,0.28,1.58-.29,2.42,0,1.16-.61,2.51.4,3.49-0.61,1.3,0.37,2.28-.37,3.49-0.4a4.76,4.76,0,0,1,3.16-.54,13,13,0,0,1,2-.54c0.12,0.15.36,0,.47,0.14,0.37-.1.64,0.44,1,0.54a8.66,8.66,0,0,0,2.08,1.54c1.17,0.92,1,2.37,1.41,3.63a4.25,4.25,0,0,1,0,3.43c-0.25.64,0.49,0.94,0.13,1.54a8.73,8.73,0,0,1-1.41,2.55,0.48,0.48,0,0,1,.13.27c-1.46.78-3.6,0.48-5.24,0.27a15.85,15.85,0,0,1-2.48.61c-0.54-.32-1.21,0-1.75-0.07a1.57,1.57,0,0,1-.81-0.07c-0.35-1-1.51-1.11-2.08-1.88-0.47-.3-1.26-0.66-1.21-1.34m-2.08,2.49c-0.65-.54-1.64-0.27-2.21-1v-0.2c0.62,0.11,1.23.67,1.88,0.27a3.77,3.77,0,0,1,1.41-1.14,3.84,3.84,0,0,0,.8,1.28l0.61,0.54c-0.58.74-1.65,0.22-2.49,0.27m-5-12.76a6.4,6.4,0,0,1-1.41-2.22c-0.15-.58.16-1.57,0-2.19l0.13,0c-0.15-.6.56-0.57,0.88-0.74a2.93,2.93,0,0,1,.94,0,1.59,1.59,0,0,0-.4,1.14,1,1,0,0,0,.74.81A4.79,4.79,0,0,0,78.6,194a1.36,1.36,0,0,0-.34-1.48,1.54,1.54,0,0,1,1.28-.2,2.36,2.36,0,0,1,2.15-.07c1.16-.46,2.14.3,3.36,0.07,0.87,0.49,1.83.15,2.76,0.54,0.86,0.62,2,.42,3,0.94a1.36,1.36,0,0,1,.07.81,1.86,1.86,0,0,1,.07,1.48,3.94,3.94,0,0,0-1.88.13,8.53,8.53,0,0,1-2.15.61c-0.64.48-1.34,0.18-2.15,0.27-0.52.07-.87,0.75-1.48,0.41H82.3a25.29,25.29,0,0,1-3.76.2,2,2,0,0,1-1.68.2m2.42-8.53c1-.42,1.93-1.12,3.09-0.94a3.38,3.38,0,0,1,2,.13,4.22,4.22,0,0,1,3,.27,1.09,1.09,0,0,1,1.14.34c0.54,1,2.54,1.66,1.75,3.16-0.92-.39-2-0.29-2.89-0.87a14.34,14.34,0,0,1-2.82-.54c-1.09.28-2.15-.56-3.16-0.07a2.81,2.81,0,0,0-2.28.07c-0.75-.29-1.39.25-2.08,0.47a0.36,0.36,0,0,0-.34-0.07,6,6,0,0,1,2.62-2m15.18,1.14a3,3,0,0,1-.54.87c-0.51.61-1.45,0.15-2,.62a4.31,4.31,0,0,1,2.57-1.49m1.21,3.43a3.47,3.47,0,0,1-3.43-.2l1.61-.61c0.59,0.3,1.48.18,1.81,0.81m2.15,21.9a1.85,1.85,0,0,1,.47.67,1.83,1.83,0,0,1-1-.2Zm-14.58,2.48a5,5,0,0,1-.4,2.08,5.41,5.41,0,0,1-5,2.15,4.59,4.59,0,0,1-1.07-.13,4.37,4.37,0,0,1-1.95-1.61c0-.93-0.82-1.95-0.14-2.75,0-.7.62-1.13,0.94-1.68,0.7-1.83,2.71-1.71,4.23-2.15a2,2,0,0,1,1.61.6c0.17-.07.22,0.14,0.34,0.2v0.13a20.33,20.33,0,0,0-2.15,1.95A8.23,8.23,0,0,0,78,218.25a1.2,1.2,0,0,0,.94,1c0.57,0,.77-0.83,1.34-0.81a13.31,13.31,0,0,1,2.62-2.15,3.4,3.4,0,0,1,.33,2m22.1-.81a8.18,8.18,0,0,0-2.21-3.43,4.22,4.22,0,0,0-4.57-.67c-0.37.12-.4,0.62-0.81,0.67a4.59,4.59,0,0,1-1.48-1.61c0.76-.44,2.17.15,2.35-1.08a1.3,1.3,0,0,0,.33-0.87c0.4-1.16,1.5-2.22.87-3.63a5.55,5.55,0,0,0,.34-2.62,1.87,1.87,0,0,1-.2-1,17,17,0,0,1-.47-2,4.28,4.28,0,0,0-2.08-3.09c-0.42-.71-1.29-0.77-1.75-1.41-0.81-1.16-2.22-1-3.43-1a0.93,0.93,0,0,1-.13-0.87,3.46,3.46,0,0,0,.81.47,4.72,4.72,0,0,0,3.7-.33c0.56,0,.32-0.59.47-0.87a3.37,3.37,0,0,0-2-1.95,3.83,3.83,0,0,0,.67-1.81,1.6,1.6,0,0,0-.61-1.28,5.15,5.15,0,0,0-3,.87,4.82,4.82,0,0,1-.87.6c-0.71-1-1.73-1.44-2.35-2.55a2,2,0,0,0-1.81-.54A4.63,4.63,0,0,0,85,187c-1.58.22-3.3-.19-4.84,0.34-0.89.22-1.63,0.79-2.49,1.07a12.89,12.89,0,0,0-2.28,2.35A2,2,0,0,1,74.5,192a1.1,1.1,0,0,0-.07.54,3.21,3.21,0,0,0,.63.76l-0.36.11c-0.52.62-.15,1.51-0.07,2.22a9.23,9.23,0,0,0,.87,2.22,8.19,8.19,0,0,1,.87,1.21c-0.94.07-1.76-.49-2.69-0.67l-0.2-.2a11.17,11.17,0,0,1-2-1.61,1.91,1.91,0,0,0,.54-1.81,9.51,9.51,0,0,0-.81-1.61,1.07,1.07,0,0,0-1.14-.67c-0.42.48-1.16,0.15-1.61,0.54a1.85,1.85,0,0,0-.87,1.82c-0.17,1.32,1.5,1.79,2.35,2.42,0.29,0.24.74,0,.94,0.47,0.23,0.64,1.13.94,1.54,1.54,0.94,0.89,2.4.45,3.43,1.14a4.29,4.29,0,0,1,1.81.4,11.26,11.26,0,0,0,1.61,3.56c0.81,0.59,1.16,1.53,1.88,2.15a1.07,1.07,0,0,1-.54.07c-1.07-.24-1.28,1.19-1.95,1.68a1.83,1.83,0,0,0-.2,1.61c1.36,1.41,3.16,1.73,5,2l-0.4.87c-0.47.4-.44,1.09-0.81,1.48-0.3-.15-0.5-0.53-0.81-0.67-0.89-.67-2.15-0.44-3.16-0.2a4.25,4.25,0,0,0-3.83,2.35c-0.72.59-.77,1.58-1.21,2.35a4.38,4.38,0,0,0,.47,1.82c-0.18,1.21.74,2,1.41,2.82A5.18,5.18,0,0,0,78.6,224a9.89,9.89,0,0,1,1-.07A7.25,7.25,0,0,0,84,221.34c0.76-1.85.72-4.53-.74-6l0.27-.8a2.54,2.54,0,0,1,.87-1.14c0.59,0.72,1.33,1.09,1.95,1.75a13,13,0,0,0,2.42,2.82v0.2a2.43,2.43,0,0,0-1.07,2.49,4.34,4.34,0,0,0,.67.54c0.36,0.2.74-.12,1.08,0.07a6.94,6.94,0,0,0,1.41-.6,1.64,1.64,0,0,0,1.07.54l2.42-.4a3.08,3.08,0,0,1,1.08-.4,5.38,5.38,0,0,1,.74,1.48c1.5,1.26,3.08,2.5,5.11,2.28a2.35,2.35,0,0,0,1.41-.27c0.87,0.07,1.44-.81,1.95-1.35a6.11,6.11,0,0,0,.74-5" transform="translate(-67.54 -183.67)"/><path class="cls-2" d="M151.92,195.29l-0.08.05,0.08-.06a0.42,0.42,0,0,0-.29-0.21h0a0.4,0.4,0,0,0-.14.38,2.27,2.27,0,0,0,.27,1,0.55,0.55,0,0,0,.49.37h0a0.31,0.31,0,0,0,.24-0.33,1.52,1.52,0,0,0-.27-0.71,3.12,3.12,0,0,0-.29-0.5m-1.9-.43h0a0.23,0.23,0,0,0-.19.14,8.18,8.18,0,0,0-.68.87,2.58,2.58,0,0,0-.39.88h0a0.57,0.57,0,0,0,.14.5h0a0.44,0.44,0,0,0,.3-0.16,1.42,1.42,0,0,0,.56-0.75,3.33,3.33,0,0,0,.37-1.16h0a0.35,0.35,0,0,0-.11-0.32h0Zm0.5-1.72a2.14,2.14,0,0,0-.36-0.05h-0.33s0,0,0-.07a3.79,3.79,0,0,0-.12-0.75,2.3,2.3,0,0,0,.49-0.08l0.24-.09a0.2,0.2,0,0,0,.13-0.16,0.21,0.21,0,0,0-.15-0.17h0a2.14,2.14,0,0,0-.5-0.07h-0.37l-0.16-.36h0l-0.11-.12a0.19,0.19,0,0,0-.13-0.07,0.15,0.15,0,0,0-.14.14,1,1,0,0,0,0,.2c0,0.08,0,.15,0,0.23l-0.43,0a2.65,2.65,0,0,0-.39.09,0.22,0.22,0,0,0-.18.17,0.19,0.19,0,0,0,.14.16,1.52,1.52,0,0,0,.27.08,3,3,0,0,0,.62.07c0,0.13,0,.25,0,0.34a1.57,1.57,0,0,0,.08.44h-0.34l-0.58.07-0.17,0a0.15,0.15,0,0,0-.1.13,0.41,0.41,0,0,0,.4.3,3,3,0,0,0,.79.14,4.47,4.47,0,0,0,1.14-.11,0.45,0.45,0,0,0,.45-0.34,0.2,0.2,0,0,0-.18-0.17m7.27-1.57-0.09,0,0,0.1a0.16,0.16,0,0,1-.17.14c-0.29,0-.42-0.19-0.43-0.65a8.14,8.14,0,0,1,.08-1.28,4,4,0,0,1,.08-0.49v0a0.8,0.8,0,0,0-.74-0.57,11.29,11.29,0,0,0-1.38-.23c0.18-.68.29-1.17,0.35-1.5h0a0.16,0.16,0,0,0,0-.08,0.11,0.11,0,0,0-.1-0.07,0.2,0.2,0,0,0-.15.11l-0.15.21a13.42,13.42,0,0,0-.56,1.28l-0.62,0h0a1.46,1.46,0,0,0-.28.06,0.18,0.18,0,0,0-.15.16,0.15,0.15,0,0,0,.08.13,2.75,2.75,0,0,0,.68.24l0.1,0c-0.06.16-.12,0.32-0.17,0.49-0.21.68-.4,1.32-0.54,1.91a2.18,2.18,0,0,0-.61-0.13,0.15,0.15,0,0,0-.1,0,0.14,0.14,0,0,0,0,.1,0.36,0.36,0,0,0,.16.24,3.23,3.23,0,0,0,.41.29l0,0c-0.09.34-.15,0.67-0.21,1h0a0.21,0.21,0,0,0,0,.11,0.14,0.14,0,0,0,.12.06h0a0.24,0.24,0,0,0,.15-0.1l0.18-.22h0l0.21-.55,0.08,0a2.32,2.32,0,0,0,1.14.37,0.2,0.2,0,0,0,.21-0.12v0h0a0.75,0.75,0,0,0-.53-0.56l-0.68-.31c0.16-.44.31-0.91,0.46-1.4l0.33-1.1a8.9,8.9,0,0,0,1,.14,1.58,1.58,0,0,1,.42.17,0.23,0.23,0,0,1,.11.12,8.67,8.67,0,0,0-.06,1.32h0a1.22,1.22,0,0,0,1.14,1.32,0.45,0.45,0,0,0,.33-0.11,0.44,0.44,0,0,0,.12-0.33,0.25,0.25,0,0,0-.15-0.22m-2.17,3.82,0.05-.08a2.16,2.16,0,0,0-.77-0.33h0a0.15,0.15,0,0,0-.14.08,0.25,0.25,0,0,0,0,.13v0c0.14,0.23.29,0.47,0.45,0.71a0.72,0.72,0,0,0,.45.4h0A0.39,0.39,0,0,0,156,196h0a0.89,0.89,0,0,0-.33-0.68Zm-3.08-7.31a5,5,0,0,0-1.05-.12l-1.75,0a4.33,4.33,0,0,0,.07-0.45c0-.21,0-0.46,0-0.76a6.37,6.37,0,0,0,1.29-.12c0.39-.07.65-0.13,0.68-0.39a0.14,0.14,0,0,0-.1-0.13A2.72,2.72,0,0,0,151,186l-1.19,0-0.08-.75h0a2.16,2.16,0,0,0-.08-0.26,0.2,0.2,0,0,0-.16-0.14,0.21,0.21,0,0,0-.17.15,2,2,0,0,0-.09.3c0,0.19-.05.42-0.08,0.7h-0.3l-0.91.09-0.26.06a0.16,0.16,0,0,0-.14.14,0.26,0.26,0,0,0,.18.22,1.57,1.57,0,0,0,.41.11,5.67,5.67,0,0,0,1,.15,4.44,4.44,0,0,0,.12,1.23h-1l-1.39.09-0.38.06-0.1,0a0.12,0.12,0,0,0-.08.11,0.29,0.29,0,0,0,.26.22,3.41,3.41,0,0,0,.61.11c0.25,0,.5.07,0.76,0.09a9.37,9.37,0,0,0-1,1.3,10.84,10.84,0,0,0-1,2.14h0v0a0.19,0.19,0,0,0,0,.11,0.15,0.15,0,0,0,.12.07h0a0.25,0.25,0,0,0,.16-0.11,2.29,2.29,0,0,0,.2-0.24,13.14,13.14,0,0,0,1-1.57c0.42-.74.71-1.3,0.88-1.68,0.22,0,.46,0,0.69,0,0.71,0,1.32,0,1.83,0,0,0.08,0,.16-0.05.25a2.83,2.83,0,0,0-.07.62,0.76,0.76,0,0,0,.32.63,1.72,1.72,0,0,0,.93.2,0.54,0.54,0,0,0,.61-0.5,2.39,2.39,0,0,0-.06-0.36h0a0.24,0.24,0,0,0-.19-0.19,0.17,0.17,0,0,0-.14.18,0.44,0.44,0,0,1-.38.23,0.69,0.69,0,0,1-.33,0,2.66,2.66,0,0,1-.06-0.57c0-.18,0-0.34-0.05-0.47a1.85,1.85,0,0,0,.35,0,3.53,3.53,0,0,0,.71-0.12,0.34,0.34,0,0,0,.3-0.27,0.16,0.16,0,0,0-.13-0.14m1.07,7.2-0.06.07,0.06-.08a1.39,1.39,0,0,0-.39-0.21h0a0.21,0.21,0,0,0-.19.11l0,0v0a1,1,0,0,0,.11.4,2.81,2.81,0,0,0,.25.51,0.82,0.82,0,0,0,.6.38h0a0.26,0.26,0,0,0,.2-0.09,0.35,0.35,0,0,0,.06-0.21,1.09,1.09,0,0,0-.28-0.65,3.18,3.18,0,0,0-.31-0.28" transform="translate(-67.54 -183.67)"/><path class="cls-2" d="M167.8,192a3.17,3.17,0,0,0-.28-0.67,1.7,1.7,0,0,0-.16-0.24,0.23,0.23,0,0,0-.17-0.11,0.15,0.15,0,0,0-.14.11,0.54,0.54,0,0,0,0,.17,8,8,0,0,0,0,.87,8.53,8.53,0,0,0,.2,1.21s0,0,0,.07a19.09,19.09,0,0,1-2.2.35l-0.42.06a0.61,0.61,0,0,0,0-.2l-0.26-4.34c0-.7-0.13-1.51-0.25-2.42h-0.09l0.09,0a4.45,4.45,0,0,0-.18-0.73,0.37,0.37,0,0,0-.26-0.3,0.22,0.22,0,0,0-.18.22h0c0,0.62,0,1.38,0,2.28l0.25,5.29a2,2,0,0,0,.06.26c-0.52,0-1.1.05-1.72,0.05a3.88,3.88,0,0,1-1.43-.19,0.58,0.58,0,0,1-.42-0.45,4.15,4.15,0,0,1-.13-0.81c0-.45-0.08-0.85-0.08-1.22a3.26,3.26,0,0,0-.06-0.75,0.32,0.32,0,0,0-.26-0.31h0a1.32,1.32,0,0,0-.31.93,9.36,9.36,0,0,0-.07,1.41,2.73,2.73,0,0,0,.36,1.4,1.51,1.51,0,0,0,1.09.52,8.06,8.06,0,0,0,1.81.11,18.47,18.47,0,0,0,3.68-.36,3.12,3.12,0,0,0,1.08-.35,1.31,1.31,0,0,0,.14.32,0.59,0.59,0,0,0,.38.34,0.29,0.29,0,0,0,.22-0.17,1.43,1.43,0,0,0,.11-0.42h0a6.31,6.31,0,0,0-.15-0.72c-0.08-.37-0.2-0.78-0.33-1.23" transform="translate(-67.54 -183.67)"/><path class="cls-2" d="M134.11,190.56a0.7,0.7,0,0,0-.22,0h0a7.3,7.3,0,0,0-1.69.62,10.9,10.9,0,0,0-1.18.7,3.11,3.11,0,0,0-.31.23,0.33,0.33,0,0,0-.13.21h0a0.22,0.22,0,0,0,.25.15h0a6.86,6.86,0,0,0,1.13-.29,7.62,7.62,0,0,0,.44,1.87,4.91,4.91,0,0,0,.51,1,0.28,0.28,0,0,0,.22.13h0l0,0a0.27,0.27,0,0,0,.12-0.25,11.09,11.09,0,0,0-.29-1.47,11.28,11.28,0,0,0-.55-1.47l0.13-.06a4.5,4.5,0,0,0,1.52-1,0.25,0.25,0,0,0,.14-0.2h0a0.16,0.16,0,0,0-.13-0.15" transform="translate(-67.54 -183.67)"/><path class="cls-2" d="M143.59,189.84a3.06,3.06,0,0,0-.67-0.25l-1.2-.15h-0.28a4.67,4.67,0,0,0,.32-1.2V188h-0.1a0.32,0.32,0,0,0-.23.16,9.3,9.3,0,0,0-.78,1.33,9.73,9.73,0,0,0-.64,1.59h0a0.22,0.22,0,0,0,.13.24h0a0.28,0.28,0,0,0,.2-0.09,4.12,4.12,0,0,0,.79-1.2l0-.1a5.12,5.12,0,0,0,.64.18,5.8,5.8,0,0,0,1.33.15,1.81,1.81,0,0,0,.38,0,0.21,0.21,0,0,0,.2-0.17,0.3,0.3,0,0,0-.17-0.23" transform="translate(-67.54 -183.67)"/><path class="cls-2" d="M136.16,192.68a0.38,0.38,0,0,0-.28.29,7.83,7.83,0,0,0-.55,1.08,8.16,8.16,0,0,0-.36,1.06h0a0.29,0.29,0,0,0,.18.34h0a0.35,0.35,0,0,0,.26-0.24,3.76,3.76,0,0,0,.55-1,3.41,3.41,0,0,0,.36-1.15,1,1,0,0,0,0-.28,0.2,0.2,0,0,0-.17-0.16" transform="translate(-67.54 -183.67)"/><path class="cls-2" d="M134.27,187.42a0.87,0.87,0,0,0-.23,0h0a7.28,7.28,0,0,0-1.6.59,10.08,10.08,0,0,0-1.15.68l-0.3.22a0.3,0.3,0,0,0-.12.2h0a0.24,0.24,0,0,0,.25.16h0a6.5,6.5,0,0,0,1.66-.55,5.11,5.11,0,0,0,1.48-.94,0.31,0.31,0,0,0,.13-0.18v0a0.16,0.16,0,0,0-.14-0.15" transform="translate(-67.54 -183.67)"/><path class="cls-2" d="M143,194.89a2.06,2.06,0,0,0-.37-0.16,3.89,3.89,0,0,1-.57-0.24c0-.13.08-0.27,0.12-0.44a3.84,3.84,0,0,0,.11-0.83h0a1.55,1.55,0,0,0,0-.3,0.18,0.18,0,0,0-.15-0.18,0.24,0.24,0,0,0-.21.18h0a6.48,6.48,0,0,1-.36,1.08,1,1,0,0,1-.06.15l-0.43-.29h0a1.41,1.41,0,0,0-.35-0.16,0.15,0.15,0,0,0-.14.09,0.35,0.35,0,0,0,0,.13h0a2,2,0,0,0,.66.87l0,0.11c-0.13.28-.24,0.5-0.32,0.65v0.05a0.15,0.15,0,0,0,.17.17,0.54,0.54,0,0,0,.27-0.09,1.73,1.73,0,0,0,.49-0.55,0.94,0.94,0,0,0,.38.07,4,4,0,0,0,.62,0,0.4,0.4,0,0,0,.32-0.16v0a0.12,0.12,0,0,0-.07-0.11" transform="translate(-67.54 -183.67)"/><path class="cls-2" d="M138.5,192a0.26,0.26,0,0,0-.25-0.2h0l-2.59-.13a3.29,3.29,0,0,0-.45,0l-0.12,0a0.13,0.13,0,0,0-.11.12h0a0.89,0.89,0,0,0,.68.4,4.83,4.83,0,0,0,1.23.18,3.82,3.82,0,0,0,1.18-.13,0.45,0.45,0,0,0,.45-0.3" transform="translate(-67.54 -183.67)"/><path class="cls-2" d="M138.49,186.41h0a0.25,0.25,0,0,0-.17-0.1,0.15,0.15,0,0,0-.14.11,0.42,0.42,0,0,0,0,.15,11.18,11.18,0,0,0,.16,1.49,6.92,6.92,0,0,1-.84.1,8.81,8.81,0,0,0-.15-1.25c-0.09-.49-0.17-1-0.26-1.5,0-.19-0.08-0.33-0.12-0.44a0.24,0.24,0,0,0-.19-0.21,0.16,0.16,0,0,0-.15.13,0.67,0.67,0,0,0,0,.2c0,0.56,0,1.06,0,1.51a5.17,5.17,0,0,0,.21,1.45,0.92,0.92,0,0,0,.05.12,1.9,1.9,0,0,1-.56-0.05,0.33,0.33,0,0,1-.15-0.08,7.44,7.44,0,0,0-.27-1.24l-0.09,0,0.09,0a2.14,2.14,0,0,0-.18-0.36,0.3,0.3,0,0,0-.23-0.16h0l0,0a0.43,0.43,0,0,0-.13.36c0,0.37,0,.77,0,1.18h0a1,1,0,0,0,.4.75,1.22,1.22,0,0,0,.86.25,5.48,5.48,0,0,0,1.69-.22,1.12,1.12,0,0,0,.26-0.08c0,0.1.06,0.2,0.09,0.29h0a0.38,0.38,0,0,0,.32.24h0A0.45,0.45,0,0,0,139,189h0a2.13,2.13,0,0,0,.09-0.25h0a4.59,4.59,0,0,0-.64-2.24h0Z" transform="translate(-67.54 -183.67)"/><path class="cls-2" d="M138.66,194.49h0l0,0-0.31.21a0.52,0.52,0,0,1-.28.13,0.75,0.75,0,0,1-.11-0.28c-0.06-.33-0.14-0.61-0.19-0.86h0a3.08,3.08,0,0,0-.19-0.38,0.29,0.29,0,0,0-.22-0.16,0.21,0.21,0,0,0-.17.2,2,2,0,0,0,0,.38,3.76,3.76,0,0,0,.23,1.31,0.68,0.68,0,0,0,.47.49h0a1,1,0,0,0,.72-0.33,1,1,0,0,0,.34-0.56v0l0,0a0.24,0.24,0,0,0-.16-0.09" transform="translate(-67.54 -183.67)"/><path class="cls-2" d="M172.49,188.63h0Zm-1.07-1.11h0v0a22.85,22.85,0,0,0,4.3-.69,18.4,18.4,0,0,0,3.59-1,0.24,0.24,0,0,0,.17-0.21h0v0l0.05-.06h-0.05v0l0,0,0,0,0,0v0h-0.2c-1.08.18-2.42,0.44-4.07,0.78-1.86.42-3.16,0.75-3.92,1a0.31,0.31,0,0,0-.16.11l0,0a0.09,0.09,0,0,0,0,.05h0a0.05,0.05,0,0,0,0,0C171.11,187.49,171.26,187.52,171.42,187.52Zm8.55,3.11c-0.59,0-1.23-.12-2-0.2s-1.8-.12-3.47-0.21h-0.37l-0.51,0h-0.19a0.65,0.65,0,0,0-.41.12h0l0,0h0l0,0.05a0.06,0.06,0,0,0,0,0h0c0.19,0.21,1,.26,2.65.44,0.5,0.07,1.05.11,1.65,0.14l0,0.15c0,0.3-.07.75-0.09,1.34,0,0.14,0,.28,0,0.41a7.54,7.54,0,0,0,.13,1.35l-4.11,0h-0.1a0.5,0.5,0,0,0,0-.14l-0.2-3.11c0-.5-0.1-1.08-0.22-1.75h0a1,1,0,0,0-.32-0.72h0a0.19,0.19,0,0,0-.16.2c0,0.25,0,.53,0,0.83s0,0.51,0,.8l0.16,3.73h0a0.55,0.55,0,0,0,0,.17c-0.3,0-.55.09-0.84,0.1a1.43,1.43,0,0,0-.63.14s0,0,0,0v0h0v0h0l-0.07,0h0.1a1.85,1.85,0,0,0,1,.23c0.76,0.07,1.52.11,2.3,0.13l1,0c1,0,1.76-.07,2.32-0.14a1.79,1.79,0,0,0,1.19-.32v0h0.07l0,0,0,0h-0.06v-0.06l0,0a2.08,2.08,0,0,0-.89-0.13c0-.09,0-0.2,0-0.34s0-.37,0-0.58l0-1.23c0-.35-0.07-0.69-0.1-1l0-.07,1.51,0.06h0.17a7.38,7.38,0,0,0,.8-0.06,0.54,0.54,0,0,0,.39-0.11A0.77,0.77,0,0,0,180,190.63Zm-6.88-.13h0Z" transform="translate(-67.54 -183.67)"/></svg>