<svg id="圖層_1" data-name="圖層 1" xmlns="http://www.w3.org/2000/svg" viewBox="0 0 60 52"><defs><style>.cls-1{fill:#f7f7f7;}.cls-2{fill:#1e1e1e;}</style></defs><title>weibo</title><rect class="cls-1" width="60" height="52"/><path class="cls-2" d="M306.36,423.47c0-2.49-2.38-4.51-5.31-4.51s-5.31,2-5.31,4.51,2.38,4.51,5.31,4.51a6,6,0,0,0,2.54-.55l2.09,0.91L305.45,426a4,4,0,0,0,.91-2.53h0Zm-7.1-1.22a0.75,0.75,0,1,1,.75-0.76,0.76,0.76,0,0,1-.75.76h0Zm3.58,0a0.75,0.75,0,1,1,.75-0.76,0.76,0.76,0,0,1-.75.76h0Zm0,0" transform="translate(-267 -395)"/><path class="cls-2" d="M301.06,418.37a6.64,6.64,0,0,1,2.31.41c0-.09,0-0.19,0-0.28,0-3.29-3.14-6-7-6s-7,2.67-7,6a5.32,5.32,0,0,0,1.21,3.34l-0.32,3.08,2.77-1.2a7.82,7.82,0,0,0,2.24.65,4.37,4.37,0,0,1-.1-0.89c0-2.81,2.65-5.1,5.91-5.1h0Zm-2.32-3.48a1,1,0,1,1-1,1,1,1,0,0,1,1-1h0Zm-4.73,2a1,1,0,1,1,1-1,1,1,0,0,1-1,1h0Zm0,0" transform="translate(-267 -395)"/></svg>