<svg id="圖層_1" data-name="圖層 1" xmlns="http://www.w3.org/2000/svg" xmlns:xlink="http://www.w3.org/1999/xlink" viewBox="0 0 60 52"><defs><style>.cls-1{fill:none;}.cls-2{fill:#f7f7f7;}.cls-3{clip-path:url(#clip-path);}.cls-4{fill:#1e1e1e;}</style><clipPath id="clip-path" transform="translate(-267 -395)"><rect class="cls-1" x="286.75" y="411.13" width="20.58" height="18.06"/></clipPath></defs><title>weixin</title><rect class="cls-2" width="60" height="52"/><g class="cls-3"><path class="cls-4" d="M302.25,420.19c-0.79-.33-0.79-0.33-0.59-1.16a1.59,1.59,0,0,0-1.67-2.22,11.08,11.08,0,0,0-3.45.79c0.08-.64.18-1.15,0.18-1.65a1.39,1.39,0,0,0-1.56-1.52,4.76,4.76,0,0,0-1.73.4,12.38,12.38,0,0,0-6.3,6.41,5.2,5.2,0,0,0-.38,2.18,4.5,4.5,0,0,0,2.44,3.71,11.32,11.32,0,0,0,9.28,1.22,8.72,8.72,0,0,0,5-3.26c1.45-2,1-4-1.2-4.89h0Zm-2,4.52a5.36,5.36,0,0,1-2.35,1.85,8.43,8.43,0,0,1-6.48.26A5.66,5.66,0,0,1,290,426a2.89,2.89,0,0,1-.42-4.5,7.11,7.11,0,0,1,4.42-2.14c0.41-.06.83-0.07,1.18-0.1A6.49,6.49,0,0,1,300,421a2.77,2.77,0,0,1,.28,3.72h0Zm7-7.65a0.74,0.74,0,1,1-1.45.06,4.7,4.7,0,0,0-4.55-4.55,0.75,0.75,0,0,1-.89-0.76,0.77,0.77,0,0,1,1-.68,6.17,6.17,0,0,1,5.93,5.93h0Zm-2.91-.05a0.73,0.73,0,1,1-1.39.39,2.68,2.68,0,0,0-2-2,0.68,0.68,0,0,1-.58-0.79,0.71,0.71,0,0,1,.84-0.62,6.49,6.49,0,0,1,.73.23,4,4,0,0,1,2.45,2.81h0Zm-8.56,7.69a2.86,2.86,0,0,1-3.19.65,1.85,1.85,0,0,1-.48-3.17,3.09,3.09,0,0,1,2-.77,8.85,8.85,0,0,1,1,.23,1.84,1.84,0,0,1,.75,3.06h0Zm0,0" transform="translate(-267 -395)"/></g></svg>