<svg id="圖層_1" data-name="圖層 1" xmlns="http://www.w3.org/2000/svg" viewBox="0 0 60 52"><defs><style>.cls-1{fill:#e0613e;}.cls-2,.cls-3{fill:none;stroke-linecap:square;stroke-miterlimit:10;}.cls-2{stroke:#e8ce31;}.cls-3{stroke:#f2d626;fill-rule:evenodd;}</style></defs><title>shoping</title><rect class="cls-1" width="60" height="52"/><line class="cls-2" x1="34.1" y1="34.3" x2="25.22" y2="34.3"/><path class="cls-3" d="M312.13,409.62s-4.88-.9-5.44,2.89L306,428.6" transform="translate(-267.92 -395)"/><path class="cls-3" d="M305.79,414.18l-14.23.24a2.49,2.49,0,0,0-3,2.64l0.64,4.46s0.37,2.4,3.72,2.4l12.82,0.69" transform="translate(-267.92 -395)"/><path class="cls-3" d="M289.76,429.3a1.69,1.69,0,1,1,1.69,1.69A1.68,1.68,0,0,1,289.76,429.3Z" transform="translate(-267.92 -395)"/><path class="cls-3" d="M302.57,429.3a1.69,1.69,0,1,1,1.69,1.69A1.69,1.69,0,0,1,302.57,429.3Z" transform="translate(-267.92 -395)"/></svg>