<svg id="圖層_1" data-name="圖層 1" xmlns="http://www.w3.org/2000/svg" viewBox="0 0 60 52"><defs><style>.cls-1{fill:#f7f7f7;}.cls-2{fill:#1d1d1d;}</style></defs><title>google</title><rect class="cls-1" width="60" height="52"/><polygon id="Plus" class="cls-2" points="44 21 40 21 40 17 39 17 39 21 35 21 35 22 39 22 39 25 40 25 40 22 44 22 44 21"/><path id="g" class="cls-2" d="M297.83,422.94c-0.52-.37-1.51-1.26-1.51-1.79s0.18-.92,1.1-1.65a4,4,0,0,0,1.62-3.09c0-1.45-.64-3.41-1.85-3.41H299l1.29-1h-5.75c-2.58,0-5,2.07-5,4.34a4.21,4.21,0,0,0,4.38,4.24c0.18,0,.36,0,0.53,0a2.41,2.41,0,0,0-.29,1.09,2.25,2.25,0,0,0,.78,1.6h-1c-3.2,0-5.65,2-5.65,4.15s2.7,3.38,5.89,3.38c3.64,0,5.65-2.07,5.65-4.14A4,4,0,0,0,297.83,422.94Zm-3.07-2.88c-1.48,0-2.89-1.66-3.15-3.6s0.74-3.44,2.22-3.39,2.89,1.61,3.15,3.55S296.24,420.1,294.76,420.05Zm-0.58,9.85c-2.21,0-3.8-1.4-3.8-3.08s2-3,4.19-3a4.81,4.81,0,0,1,1.43.23c1.2,0.83,2.06,1.3,2.3,2.25a2.57,2.57,0,0,1,.07.59C298.36,428.59,297.28,429.9,294.18,429.9Z" transform="translate(-267 -395)"/></svg>