<svg id="圖層_1" data-name="圖層 1" xmlns="http://www.w3.org/2000/svg" viewBox="0 0 60 52"><defs><style>.cls-1{fill:#f7f7f7;}.cls-2{fill:#1e1e1e;}</style></defs><title>twitter</title><rect class="cls-1" width="60" height="52"/><path class="cls-2" d="M305,417.79c0,0.15,0,.3,0,0.45a9.92,9.92,0,0,1-15.27,8.36,6.73,6.73,0,0,0,.83.05,7,7,0,0,0,4.34-1.49,3.49,3.49,0,0,1-3.26-2.42,3.69,3.69,0,0,0,.66.06,3.4,3.4,0,0,0,.92-0.12,3.5,3.5,0,0,1-2.8-3.42v0a3.49,3.49,0,0,0,1.58.44A3.49,3.49,0,0,1,291,415a9.9,9.9,0,0,0,7.19,3.64,3.55,3.55,0,0,1-.09-0.8,3.49,3.49,0,0,1,6-2.38,7,7,0,0,0,2.22-.85,3.51,3.51,0,0,1-1.54,1.93,7,7,0,0,0,2-.55,7,7,0,0,1-1.74,1.81h0Zm0,0" transform="translate(-267 -395)"/></svg>